<mxfile host="app.diagrams.net" modified="2021-05-27T16:00:44.488Z" agent="5.0 (X11)" etag="lSIQBcmX1ZnxcawDMv9I" version="14.7.2" type="github">
  <diagram id="GdmK5pYut-Oaf8ZcdXea" name="Page-1">
    <mxGraphModel dx="1643" dy="492" grid="1" gridSize="10" guides="1" tooltips="1" connect="1" arrows="1" fold="1" page="1" pageScale="1" pageWidth="827" pageHeight="1169" math="0" shadow="0">
      <root>
        <mxCell id="0" />
        <mxCell id="1" parent="0" />
        <mxCell id="9ImITdyPd6kYSpZHSEgN-1" value="" style="rounded=0;whiteSpace=wrap;html=1;" vertex="1" parent="1">
          <mxGeometry x="-110" y="20" width="1050" height="680" as="geometry" />
        </mxCell>
        <mxCell id="9ImITdyPd6kYSpZHSEgN-3" value="" style="rounded=0;whiteSpace=wrap;html=1;" vertex="1" parent="1">
          <mxGeometry x="70" y="105" width="200" height="260" as="geometry" />
        </mxCell>
        <mxCell id="9ImITdyPd6kYSpZHSEgN-4" value="" style="rounded=0;whiteSpace=wrap;html=1;" vertex="1" parent="1">
          <mxGeometry x="320" y="110" width="200" height="260" as="geometry" />
        </mxCell>
        <mxCell id="9ImITdyPd6kYSpZHSEgN-5" value="" style="rounded=0;whiteSpace=wrap;html=1;" vertex="1" parent="1">
          <mxGeometry x="580" y="105" width="200" height="260" as="geometry" />
        </mxCell>
        <mxCell id="9ImITdyPd6kYSpZHSEgN-6" value="" style="rounded=0;whiteSpace=wrap;html=1;" vertex="1" parent="1">
          <mxGeometry x="214" y="410" width="200" height="260" as="geometry" />
        </mxCell>
        <mxCell id="9ImITdyPd6kYSpZHSEgN-15" value="" style="group" vertex="1" connectable="0" parent="1">
          <mxGeometry x="330" y="127" width="58" height="226" as="geometry" />
        </mxCell>
        <mxCell id="9ImITdyPd6kYSpZHSEgN-10" value="" style="shape=image;html=1;verticalAlign=top;verticalLabelPosition=bottom;labelBackgroundColor=#ffffff;imageAspect=0;aspect=fixed;image=https://cdn3.iconfinder.com/data/icons/street-food-and-food-trucker-1/64/grilled-corn-vegetable-organic-plant-128.png" vertex="1" parent="9ImITdyPd6kYSpZHSEgN-15">
          <mxGeometry width="58" height="58" as="geometry" />
        </mxCell>
        <mxCell id="9ImITdyPd6kYSpZHSEgN-11" value="" style="shape=image;html=1;verticalAlign=top;verticalLabelPosition=bottom;labelBackgroundColor=#ffffff;imageAspect=0;aspect=fixed;image=https://cdn3.iconfinder.com/data/icons/street-food-and-food-trucker-1/64/grilled-corn-vegetable-organic-plant-128.png" vertex="1" parent="9ImITdyPd6kYSpZHSEgN-15">
          <mxGeometry y="82" width="58" height="58" as="geometry" />
        </mxCell>
        <mxCell id="9ImITdyPd6kYSpZHSEgN-12" value="" style="shape=image;html=1;verticalAlign=top;verticalLabelPosition=bottom;labelBackgroundColor=#ffffff;imageAspect=0;aspect=fixed;image=https://cdn3.iconfinder.com/data/icons/street-food-and-food-trucker-1/64/grilled-corn-vegetable-organic-plant-128.png" vertex="1" parent="9ImITdyPd6kYSpZHSEgN-15">
          <mxGeometry y="168" width="58" height="58" as="geometry" />
        </mxCell>
        <mxCell id="9ImITdyPd6kYSpZHSEgN-16" value="" style="group" vertex="1" connectable="0" parent="1">
          <mxGeometry x="440" y="120" width="58" height="226" as="geometry" />
        </mxCell>
        <mxCell id="9ImITdyPd6kYSpZHSEgN-17" value="" style="shape=image;html=1;verticalAlign=top;verticalLabelPosition=bottom;labelBackgroundColor=#ffffff;imageAspect=0;aspect=fixed;image=https://cdn3.iconfinder.com/data/icons/street-food-and-food-trucker-1/64/grilled-corn-vegetable-organic-plant-128.png" vertex="1" parent="9ImITdyPd6kYSpZHSEgN-16">
          <mxGeometry width="58" height="58" as="geometry" />
        </mxCell>
        <mxCell id="9ImITdyPd6kYSpZHSEgN-18" value="" style="shape=image;html=1;verticalAlign=top;verticalLabelPosition=bottom;labelBackgroundColor=#ffffff;imageAspect=0;aspect=fixed;image=https://cdn3.iconfinder.com/data/icons/street-food-and-food-trucker-1/64/grilled-corn-vegetable-organic-plant-128.png" vertex="1" parent="9ImITdyPd6kYSpZHSEgN-16">
          <mxGeometry y="82" width="58" height="58" as="geometry" />
        </mxCell>
        <mxCell id="9ImITdyPd6kYSpZHSEgN-19" value="" style="shape=image;html=1;verticalAlign=top;verticalLabelPosition=bottom;labelBackgroundColor=#ffffff;imageAspect=0;aspect=fixed;image=https://cdn3.iconfinder.com/data/icons/street-food-and-food-trucker-1/64/grilled-corn-vegetable-organic-plant-128.png" vertex="1" parent="9ImITdyPd6kYSpZHSEgN-16">
          <mxGeometry y="168" width="58" height="58" as="geometry" />
        </mxCell>
        <mxCell id="9ImITdyPd6kYSpZHSEgN-20" value="" style="group" vertex="1" connectable="0" parent="1">
          <mxGeometry x="80" y="110" width="70" height="243" as="geometry" />
        </mxCell>
        <mxCell id="9ImITdyPd6kYSpZHSEgN-7" value="" style="shape=image;html=1;verticalAlign=top;verticalLabelPosition=bottom;labelBackgroundColor=#ffffff;imageAspect=0;aspect=fixed;image=https://cdn3.iconfinder.com/data/icons/spring-2-1/30/Sprout-128.png" vertex="1" parent="9ImITdyPd6kYSpZHSEgN-20">
          <mxGeometry width="70" height="70" as="geometry" />
        </mxCell>
        <mxCell id="9ImITdyPd6kYSpZHSEgN-8" value="" style="shape=image;html=1;verticalAlign=top;verticalLabelPosition=bottom;labelBackgroundColor=#ffffff;imageAspect=0;aspect=fixed;image=https://cdn3.iconfinder.com/data/icons/spring-2-1/30/Sprout-128.png" vertex="1" parent="9ImITdyPd6kYSpZHSEgN-20">
          <mxGeometry y="80" width="70" height="70" as="geometry" />
        </mxCell>
        <mxCell id="9ImITdyPd6kYSpZHSEgN-9" value="" style="shape=image;html=1;verticalAlign=top;verticalLabelPosition=bottom;labelBackgroundColor=#ffffff;imageAspect=0;aspect=fixed;image=https://cdn3.iconfinder.com/data/icons/spring-2-1/30/Sprout-128.png" vertex="1" parent="9ImITdyPd6kYSpZHSEgN-20">
          <mxGeometry y="173" width="70" height="70" as="geometry" />
        </mxCell>
        <mxCell id="9ImITdyPd6kYSpZHSEgN-21" value="" style="group" vertex="1" connectable="0" parent="1">
          <mxGeometry x="170" y="113.5" width="70" height="243" as="geometry" />
        </mxCell>
        <mxCell id="9ImITdyPd6kYSpZHSEgN-22" value="" style="shape=image;html=1;verticalAlign=top;verticalLabelPosition=bottom;labelBackgroundColor=#ffffff;imageAspect=0;aspect=fixed;image=https://cdn3.iconfinder.com/data/icons/spring-2-1/30/Sprout-128.png" vertex="1" parent="9ImITdyPd6kYSpZHSEgN-21">
          <mxGeometry width="70" height="70" as="geometry" />
        </mxCell>
        <mxCell id="9ImITdyPd6kYSpZHSEgN-23" value="" style="shape=image;html=1;verticalAlign=top;verticalLabelPosition=bottom;labelBackgroundColor=#ffffff;imageAspect=0;aspect=fixed;image=https://cdn3.iconfinder.com/data/icons/spring-2-1/30/Sprout-128.png" vertex="1" parent="9ImITdyPd6kYSpZHSEgN-21">
          <mxGeometry y="80" width="70" height="70" as="geometry" />
        </mxCell>
        <mxCell id="9ImITdyPd6kYSpZHSEgN-24" value="" style="shape=image;html=1;verticalAlign=top;verticalLabelPosition=bottom;labelBackgroundColor=#ffffff;imageAspect=0;aspect=fixed;image=https://cdn3.iconfinder.com/data/icons/spring-2-1/30/Sprout-128.png" vertex="1" parent="9ImITdyPd6kYSpZHSEgN-21">
          <mxGeometry y="173" width="70" height="70" as="geometry" />
        </mxCell>
        <mxCell id="9ImITdyPd6kYSpZHSEgN-29" value="" style="group" vertex="1" connectable="0" parent="1">
          <mxGeometry x="590" y="110" width="68" height="236.5" as="geometry" />
        </mxCell>
        <mxCell id="9ImITdyPd6kYSpZHSEgN-26" value="" style="shape=image;html=1;verticalAlign=top;verticalLabelPosition=bottom;labelBackgroundColor=#ffffff;imageAspect=0;aspect=fixed;image=https://cdn2.iconfinder.com/data/icons/japan-flat-2/340/bamboo_nature_tree_plant_leaf_branch_forest-128.png" vertex="1" parent="9ImITdyPd6kYSpZHSEgN-29">
          <mxGeometry width="68" height="68" as="geometry" />
        </mxCell>
        <mxCell id="9ImITdyPd6kYSpZHSEgN-27" value="" style="shape=image;html=1;verticalAlign=top;verticalLabelPosition=bottom;labelBackgroundColor=#ffffff;imageAspect=0;aspect=fixed;image=https://cdn2.iconfinder.com/data/icons/japan-flat-2/340/bamboo_nature_tree_plant_leaf_branch_forest-128.png" vertex="1" parent="9ImITdyPd6kYSpZHSEgN-29">
          <mxGeometry y="86" width="68" height="68" as="geometry" />
        </mxCell>
        <mxCell id="9ImITdyPd6kYSpZHSEgN-28" value="" style="shape=image;html=1;verticalAlign=top;verticalLabelPosition=bottom;labelBackgroundColor=#ffffff;imageAspect=0;aspect=fixed;image=https://cdn2.iconfinder.com/data/icons/japan-flat-2/340/bamboo_nature_tree_plant_leaf_branch_forest-128.png" vertex="1" parent="9ImITdyPd6kYSpZHSEgN-29">
          <mxGeometry y="168.5" width="68" height="68" as="geometry" />
        </mxCell>
        <mxCell id="9ImITdyPd6kYSpZHSEgN-31" value="" style="group" vertex="1" connectable="0" parent="1">
          <mxGeometry x="700" y="110" width="68" height="236.5" as="geometry" />
        </mxCell>
        <mxCell id="9ImITdyPd6kYSpZHSEgN-32" value="" style="shape=image;html=1;verticalAlign=top;verticalLabelPosition=bottom;labelBackgroundColor=#ffffff;imageAspect=0;aspect=fixed;image=https://cdn2.iconfinder.com/data/icons/japan-flat-2/340/bamboo_nature_tree_plant_leaf_branch_forest-128.png" vertex="1" parent="9ImITdyPd6kYSpZHSEgN-31">
          <mxGeometry width="68" height="68" as="geometry" />
        </mxCell>
        <mxCell id="9ImITdyPd6kYSpZHSEgN-33" value="" style="shape=image;html=1;verticalAlign=top;verticalLabelPosition=bottom;labelBackgroundColor=#ffffff;imageAspect=0;aspect=fixed;image=https://cdn2.iconfinder.com/data/icons/japan-flat-2/340/bamboo_nature_tree_plant_leaf_branch_forest-128.png" vertex="1" parent="9ImITdyPd6kYSpZHSEgN-31">
          <mxGeometry y="86" width="68" height="68" as="geometry" />
        </mxCell>
        <mxCell id="9ImITdyPd6kYSpZHSEgN-34" value="" style="shape=image;html=1;verticalAlign=top;verticalLabelPosition=bottom;labelBackgroundColor=#ffffff;imageAspect=0;aspect=fixed;image=https://cdn2.iconfinder.com/data/icons/japan-flat-2/340/bamboo_nature_tree_plant_leaf_branch_forest-128.png" vertex="1" parent="9ImITdyPd6kYSpZHSEgN-31">
          <mxGeometry y="168.5" width="68" height="68" as="geometry" />
        </mxCell>
        <mxCell id="9ImITdyPd6kYSpZHSEgN-40" value="" style="group" vertex="1" connectable="0" parent="1">
          <mxGeometry x="220" y="420" width="70" height="250" as="geometry" />
        </mxCell>
        <mxCell id="9ImITdyPd6kYSpZHSEgN-37" value="" style="shape=image;html=1;verticalAlign=top;verticalLabelPosition=bottom;labelBackgroundColor=#ffffff;imageAspect=0;aspect=fixed;image=https://cdn2.iconfinder.com/data/icons/spring-flat-11/272/spring-mushroom-food-vegetable-garden-plant-nature-128.png" vertex="1" parent="9ImITdyPd6kYSpZHSEgN-40">
          <mxGeometry width="70" height="70" as="geometry" />
        </mxCell>
        <mxCell id="9ImITdyPd6kYSpZHSEgN-38" value="" style="shape=image;html=1;verticalAlign=top;verticalLabelPosition=bottom;labelBackgroundColor=#ffffff;imageAspect=0;aspect=fixed;image=https://cdn2.iconfinder.com/data/icons/spring-flat-11/272/spring-mushroom-food-vegetable-garden-plant-nature-128.png" vertex="1" parent="9ImITdyPd6kYSpZHSEgN-40">
          <mxGeometry y="85" width="70" height="70" as="geometry" />
        </mxCell>
        <mxCell id="9ImITdyPd6kYSpZHSEgN-39" value="" style="shape=image;html=1;verticalAlign=top;verticalLabelPosition=bottom;labelBackgroundColor=#ffffff;imageAspect=0;aspect=fixed;image=https://cdn2.iconfinder.com/data/icons/spring-flat-11/272/spring-mushroom-food-vegetable-garden-plant-nature-128.png" vertex="1" parent="9ImITdyPd6kYSpZHSEgN-40">
          <mxGeometry y="180" width="70" height="70" as="geometry" />
        </mxCell>
        <mxCell id="9ImITdyPd6kYSpZHSEgN-41" value="" style="group" vertex="1" connectable="0" parent="1">
          <mxGeometry x="330" y="420" width="70" height="250" as="geometry" />
        </mxCell>
        <mxCell id="9ImITdyPd6kYSpZHSEgN-42" value="" style="shape=image;html=1;verticalAlign=top;verticalLabelPosition=bottom;labelBackgroundColor=#ffffff;imageAspect=0;aspect=fixed;image=https://cdn2.iconfinder.com/data/icons/spring-flat-11/272/spring-mushroom-food-vegetable-garden-plant-nature-128.png" vertex="1" parent="9ImITdyPd6kYSpZHSEgN-41">
          <mxGeometry width="70" height="70" as="geometry" />
        </mxCell>
        <mxCell id="9ImITdyPd6kYSpZHSEgN-43" value="" style="shape=image;html=1;verticalAlign=top;verticalLabelPosition=bottom;labelBackgroundColor=#ffffff;imageAspect=0;aspect=fixed;image=https://cdn2.iconfinder.com/data/icons/spring-flat-11/272/spring-mushroom-food-vegetable-garden-plant-nature-128.png" vertex="1" parent="9ImITdyPd6kYSpZHSEgN-41">
          <mxGeometry y="85" width="70" height="70" as="geometry" />
        </mxCell>
        <mxCell id="9ImITdyPd6kYSpZHSEgN-44" value="" style="shape=image;html=1;verticalAlign=top;verticalLabelPosition=bottom;labelBackgroundColor=#ffffff;imageAspect=0;aspect=fixed;image=https://cdn2.iconfinder.com/data/icons/spring-flat-11/272/spring-mushroom-food-vegetable-garden-plant-nature-128.png" vertex="1" parent="9ImITdyPd6kYSpZHSEgN-41">
          <mxGeometry y="180" width="70" height="70" as="geometry" />
        </mxCell>
      </root>
    </mxGraphModel>
  </diagram>
</mxfile>
